<?xml version="1.0" standalone="no"?>
<svg viewBox="0 0 200 200" xmlns="http://www.w3.org/2000/svg">
  <path fill="#0F62FE" d="M35,-57.5C46.8,-53.9,58.7,-47.3,63.2,-37.2C67.6,-27.2,64.7,-13.6,64.7,0C64.7,13.5,67.5,27.1,61.9,35.2C56.3,43.3,42.2,46,30.4,48.2C18.7,50.5,9.4,52.4,-3.4,58.2C-16.1,64,-32.1,73.8,-45.4,72.4C-58.7,71,-69.1,58.5,-72.2,44.6C-75.4,30.6,-71.1,15.3,-70.2,0.6C-69.2,-14.2,-71.5,-28.4,-66.4,-38.9C-61.4,-49.5,-48.9,-56.3,-36.6,-59.6C-24.3,-62.9,-12.2,-62.6,-0.3,-62.1C11.6,-61.7,23.3,-61.1,35,-57.5Z" transform="translate(100 100)" />
</svg>
